<mxfile host="Electron" modified="2024-02-07T01:59:22.262Z" agent="Mozilla/5.0 (Windows NT 10.0; Win64; x64) AppleWebKit/537.36 (KHTML, like Gecko) draw.io/23.0.2 Chrome/120.0.6099.109 Electron/28.1.0 Safari/537.36" etag="SVAvqN4aBHl8SW9dF-BB" version="23.0.2" type="device">
  <diagram name="Page-1" id="ZseYCfr6xAdIwP1NUaYy">
    <mxGraphModel dx="1050" dy="717" grid="1" gridSize="10" guides="1" tooltips="1" connect="1" arrows="1" fold="1" page="1" pageScale="1" pageWidth="850" pageHeight="1100" math="0" shadow="0">
      <root>
        <mxCell id="0" />
        <mxCell id="1" parent="0" />
        <mxCell id="k5EalT-84JXe36mMSfdT-2" value="" style="whiteSpace=wrap;html=1;aspect=fixed;fillColor=#99FF33;strokeColor=#82b366;" parent="1" vertex="1">
          <mxGeometry x="345" y="40" width="160" height="160" as="geometry" />
        </mxCell>
        <mxCell id="k5EalT-84JXe36mMSfdT-3" value="" style="whiteSpace=wrap;html=1;aspect=fixed;fillColor=#660033;strokeColor=#b85450;" parent="1" vertex="1">
          <mxGeometry x="650" y="40" width="160" height="160" as="geometry" />
        </mxCell>
        <mxCell id="k5EalT-84JXe36mMSfdT-4" value="" style="whiteSpace=wrap;html=1;aspect=fixed;fillColor=#99CCFF;strokeColor=#6c8ebf;" parent="1" vertex="1">
          <mxGeometry x="40" y="320" width="160" height="160" as="geometry" />
        </mxCell>
        <mxCell id="k5EalT-84JXe36mMSfdT-5" value="" style="whiteSpace=wrap;html=1;aspect=fixed;fillColor=#660066;strokeColor=#9673a6;" parent="1" vertex="1">
          <mxGeometry x="345" y="320" width="160" height="160" as="geometry" />
        </mxCell>
        <mxCell id="k5EalT-84JXe36mMSfdT-7" value="" style="whiteSpace=wrap;html=1;aspect=fixed;fillColor=#FF9933;strokeColor=#d79b00;" parent="1" vertex="1">
          <mxGeometry x="40" y="600" width="160" height="160" as="geometry" />
        </mxCell>
        <mxCell id="k5EalT-84JXe36mMSfdT-9" value="" style="whiteSpace=wrap;html=1;aspect=fixed;fillColor=#ffff88;strokeColor=#36393d;" parent="1" vertex="1">
          <mxGeometry x="345" y="600" width="160" height="160" as="geometry" />
        </mxCell>
        <mxCell id="k5EalT-84JXe36mMSfdT-10" value="" style="whiteSpace=wrap;html=1;aspect=fixed;fillColor=#999999;strokeColor=#36393d;" parent="1" vertex="1">
          <mxGeometry x="345" y="880" width="160" height="160" as="geometry" />
        </mxCell>
        <mxCell id="k5EalT-84JXe36mMSfdT-11" value="" style="whiteSpace=wrap;html=1;aspect=fixed;fillColor=#6B3500;strokeColor=#36393d;" parent="1" vertex="1">
          <mxGeometry x="650" y="880" width="160" height="160" as="geometry" />
        </mxCell>
        <mxCell id="k5EalT-84JXe36mMSfdT-12" value="" style="whiteSpace=wrap;html=1;aspect=fixed;fillColor=#DBDBDB;strokeColor=#36393d;" parent="1" vertex="1">
          <mxGeometry x="650" y="600" width="160" height="160" as="geometry" />
        </mxCell>
        <mxCell id="k5EalT-84JXe36mMSfdT-151" style="edgeStyle=orthogonalEdgeStyle;rounded=0;orthogonalLoop=1;jettySize=auto;html=1;entryX=0;entryY=0.5;entryDx=0;entryDy=0;startArrow=classic;startFill=1;" parent="1" source="k5EalT-84JXe36mMSfdT-13" target="k5EalT-84JXe36mMSfdT-65" edge="1">
          <mxGeometry relative="1" as="geometry">
            <Array as="points">
              <mxPoint x="160" y="240" />
              <mxPoint x="272" y="240" />
              <mxPoint x="272" y="368" />
            </Array>
          </mxGeometry>
        </mxCell>
        <mxCell id="k5EalT-84JXe36mMSfdT-169" style="edgeStyle=orthogonalEdgeStyle;rounded=0;orthogonalLoop=1;jettySize=auto;html=1;entryX=0;entryY=0.5;entryDx=0;entryDy=0;startArrow=classic;startFill=1;" parent="1" source="k5EalT-84JXe36mMSfdT-13" target="k5EalT-84JXe36mMSfdT-41" edge="1">
          <mxGeometry relative="1" as="geometry">
            <Array as="points">
              <mxPoint x="230" y="120" />
              <mxPoint x="230" y="178" />
            </Array>
          </mxGeometry>
        </mxCell>
        <mxCell id="k5EalT-84JXe36mMSfdT-13" value="Broken Swamps" style="ellipse;whiteSpace=wrap;html=1;aspect=fixed;fillColor=#f5f5f5;fontColor=#333333;strokeColor=#666666;" parent="1" vertex="1">
          <mxGeometry x="40" y="40" width="160" height="160" as="geometry" />
        </mxCell>
        <mxCell id="k5EalT-84JXe36mMSfdT-14" value="Grey Forest" style="ellipse;whiteSpace=wrap;html=1;aspect=fixed;fillColor=#f5f5f5;fontColor=#333333;strokeColor=#666666;" parent="1" vertex="1">
          <mxGeometry x="650" y="320" width="160" height="160" as="geometry" />
        </mxCell>
        <mxCell id="k5EalT-84JXe36mMSfdT-147" style="edgeStyle=orthogonalEdgeStyle;rounded=0;orthogonalLoop=1;jettySize=auto;html=1;entryX=0.5;entryY=1;entryDx=0;entryDy=0;startArrow=classic;startFill=1;" parent="1" source="k5EalT-84JXe36mMSfdT-15" target="k5EalT-84JXe36mMSfdT-131" edge="1">
          <mxGeometry relative="1" as="geometry">
            <Array as="points">
              <mxPoint x="120" y="1080" />
              <mxPoint x="676" y="1080" />
            </Array>
          </mxGeometry>
        </mxCell>
        <mxCell id="k5EalT-84JXe36mMSfdT-15" value="Flats" style="ellipse;whiteSpace=wrap;html=1;aspect=fixed;fillColor=#f5f5f5;fontColor=#333333;strokeColor=#666666;" parent="1" vertex="1">
          <mxGeometry x="40" y="880" width="160" height="160" as="geometry" />
        </mxCell>
        <mxCell id="k5EalT-84JXe36mMSfdT-16" value="Haven" style="rounded=0;whiteSpace=wrap;html=1;fillColor=#009900;" parent="1" vertex="1">
          <mxGeometry x="345" y="40" width="160" height="25" as="geometry" />
        </mxCell>
        <mxCell id="k5EalT-84JXe36mMSfdT-24" value="&lt;font style=&quot;font-size: 10px;&quot;&gt;Lone Farmstead&lt;/font&gt;" style="rounded=0;whiteSpace=wrap;html=1;fillColor=#009900;" parent="1" vertex="1">
          <mxGeometry x="452" y="65" width="53" height="45" as="geometry" />
        </mxCell>
        <mxCell id="k5EalT-84JXe36mMSfdT-34" value="&lt;font style=&quot;font-size: 10px;&quot;&gt;Rookie&lt;br&gt;&amp;nbsp;Village&lt;/font&gt;" style="rounded=0;whiteSpace=wrap;html=1;fillColor=#009900;" parent="1" vertex="1">
          <mxGeometry x="345" y="65" width="53" height="45" as="geometry" />
        </mxCell>
        <mxCell id="k5EalT-84JXe36mMSfdT-36" value="&lt;font style=&quot;font-size: 10px;&quot;&gt;Damaged Chapel&lt;/font&gt;" style="rounded=0;whiteSpace=wrap;html=1;fillColor=#009900;" parent="1" vertex="1">
          <mxGeometry x="398.5" y="65" width="53" height="45" as="geometry" />
        </mxCell>
        <mxCell id="k5EalT-84JXe36mMSfdT-152" style="edgeStyle=orthogonalEdgeStyle;rounded=0;orthogonalLoop=1;jettySize=auto;html=1;entryX=0;entryY=0.5;entryDx=0;entryDy=0;startArrow=classic;startFill=1;" parent="1" source="k5EalT-84JXe36mMSfdT-37" target="k5EalT-84JXe36mMSfdT-58" edge="1">
          <mxGeometry relative="1" as="geometry" />
        </mxCell>
        <mxCell id="k5EalT-84JXe36mMSfdT-37" value="&lt;font style=&quot;font-size: 10px;&quot;&gt;Rookie Checkpoint&lt;/font&gt;" style="rounded=0;whiteSpace=wrap;html=1;fillColor=#009900;" parent="1" vertex="1">
          <mxGeometry x="452" y="110" width="53" height="45" as="geometry" />
        </mxCell>
        <mxCell id="k5EalT-84JXe36mMSfdT-38" value="&lt;font style=&quot;font-size: 10px;&quot;&gt;Levee&lt;/font&gt;" style="rounded=0;whiteSpace=wrap;html=1;fillColor=#009900;" parent="1" vertex="1">
          <mxGeometry x="345" y="110" width="53" height="45" as="geometry" />
        </mxCell>
        <mxCell id="k5EalT-84JXe36mMSfdT-39" value="&lt;font style=&quot;font-size: 10px;&quot;&gt;Crossroads&lt;/font&gt;" style="rounded=0;whiteSpace=wrap;html=1;fillColor=#009900;" parent="1" vertex="1">
          <mxGeometry x="398.5" y="110" width="53" height="45" as="geometry" />
        </mxCell>
        <mxCell id="k5EalT-84JXe36mMSfdT-40" value="&lt;font style=&quot;font-size: 10px;&quot;&gt;Forester&#39;s Hut&lt;/font&gt;" style="rounded=0;whiteSpace=wrap;html=1;fillColor=#009900;" parent="1" vertex="1">
          <mxGeometry x="452" y="155" width="53" height="45" as="geometry" />
        </mxCell>
        <mxCell id="k5EalT-84JXe36mMSfdT-41" value="&lt;font style=&quot;font-size: 10px;&quot;&gt;Toxic Swamps&lt;/font&gt;" style="rounded=0;whiteSpace=wrap;html=1;fillColor=#009900;" parent="1" vertex="1">
          <mxGeometry x="345" y="155" width="53" height="45" as="geometry" />
        </mxCell>
        <mxCell id="k5EalT-84JXe36mMSfdT-42" value="&lt;font style=&quot;font-size: 10px;&quot;&gt;Flea Market&lt;/font&gt;" style="rounded=0;whiteSpace=wrap;html=1;fillColor=#009900;" parent="1" vertex="1">
          <mxGeometry x="398.5" y="155" width="53" height="45" as="geometry" />
        </mxCell>
        <mxCell id="k5EalT-84JXe36mMSfdT-53" value="Sticks" style="rounded=0;whiteSpace=wrap;html=1;fillColor=#99004D;" parent="1" vertex="1">
          <mxGeometry x="650" y="40" width="160" height="25" as="geometry" />
        </mxCell>
        <mxCell id="k5EalT-84JXe36mMSfdT-54" value="&lt;font style=&quot;font-size: 10px;&quot;&gt;Trap Town&lt;/font&gt;" style="rounded=0;whiteSpace=wrap;html=1;fillColor=#99004D;" parent="1" vertex="1">
          <mxGeometry x="757" y="65" width="53" height="45" as="geometry" />
        </mxCell>
        <mxCell id="k5EalT-84JXe36mMSfdT-55" value="&lt;font style=&quot;font-size: 10px;&quot;&gt;Dark Bondfire&lt;/font&gt;" style="rounded=0;whiteSpace=wrap;html=1;fillColor=#99004D;" parent="1" vertex="1">
          <mxGeometry x="650" y="65" width="53" height="45" as="geometry" />
        </mxCell>
        <mxCell id="k5EalT-84JXe36mMSfdT-56" value="&lt;font style=&quot;font-size: 10px;&quot;&gt;Trenches&lt;/font&gt;" style="rounded=0;whiteSpace=wrap;html=1;fillColor=#99004D;" parent="1" vertex="1">
          <mxGeometry x="703.5" y="65" width="53" height="45" as="geometry" />
        </mxCell>
        <mxCell id="k5EalT-84JXe36mMSfdT-57" value="&lt;font style=&quot;font-size: 10px;&quot;&gt;Dangerous Ruins&lt;/font&gt;" style="rounded=0;whiteSpace=wrap;html=1;fillColor=#99004D;" parent="1" vertex="1">
          <mxGeometry x="757" y="110" width="53" height="45" as="geometry" />
        </mxCell>
        <mxCell id="k5EalT-84JXe36mMSfdT-58" value="&lt;font style=&quot;font-size: 10px;&quot;&gt;Logging Camp&lt;/font&gt;" style="rounded=0;whiteSpace=wrap;html=1;fillColor=#99004D;" parent="1" vertex="1">
          <mxGeometry x="650" y="110" width="53" height="45" as="geometry" />
        </mxCell>
        <mxCell id="k5EalT-84JXe36mMSfdT-59" value="&lt;font size=&quot;1&quot;&gt;Spike Fields&lt;/font&gt;" style="rounded=0;whiteSpace=wrap;html=1;fillColor=#99004D;" parent="1" vertex="1">
          <mxGeometry x="703.5" y="110" width="53" height="45" as="geometry" />
        </mxCell>
        <mxCell id="k5EalT-84JXe36mMSfdT-60" value="&lt;font style=&quot;font-size: 10px;&quot;&gt;Outlook&lt;/font&gt;" style="rounded=0;whiteSpace=wrap;html=1;fillColor=#99004D;" parent="1" vertex="1">
          <mxGeometry x="757" y="155" width="53" height="45" as="geometry" />
        </mxCell>
        <mxCell id="k5EalT-84JXe36mMSfdT-61" value="&lt;font style=&quot;font-size: 10px;&quot;&gt;Pond&lt;/font&gt;" style="rounded=0;whiteSpace=wrap;html=1;fillColor=#99004D;" parent="1" vertex="1">
          <mxGeometry x="650" y="155" width="53" height="45" as="geometry" />
        </mxCell>
        <mxCell id="k5EalT-84JXe36mMSfdT-141" style="edgeStyle=orthogonalEdgeStyle;rounded=0;orthogonalLoop=1;jettySize=auto;html=1;startArrow=classic;startFill=1;" parent="1" source="k5EalT-84JXe36mMSfdT-62" target="k5EalT-84JXe36mMSfdT-14" edge="1">
          <mxGeometry relative="1" as="geometry" />
        </mxCell>
        <mxCell id="k5EalT-84JXe36mMSfdT-62" value="&lt;font style=&quot;font-size: 10px;&quot;&gt;Forest Gate&lt;/font&gt;" style="rounded=0;whiteSpace=wrap;html=1;fillColor=#99004D;" parent="1" vertex="1">
          <mxGeometry x="703.5" y="155" width="53" height="45" as="geometry" />
        </mxCell>
        <mxCell id="k5EalT-84JXe36mMSfdT-63" value="Factory" style="rounded=0;whiteSpace=wrap;html=1;fillColor=#660066;" parent="1" vertex="1">
          <mxGeometry x="345" y="320" width="160" height="25" as="geometry" />
        </mxCell>
        <mxCell id="k5EalT-84JXe36mMSfdT-153" style="edgeStyle=orthogonalEdgeStyle;rounded=0;orthogonalLoop=1;jettySize=auto;html=1;startArrow=classic;startFill=1;" parent="1" source="k5EalT-84JXe36mMSfdT-64" target="k5EalT-84JXe36mMSfdT-84" edge="1">
          <mxGeometry relative="1" as="geometry">
            <Array as="points">
              <mxPoint x="620" y="368" />
              <mxPoint x="620" y="560" />
              <mxPoint x="840" y="560" />
              <mxPoint x="840" y="648" />
            </Array>
          </mxGeometry>
        </mxCell>
        <mxCell id="k5EalT-84JXe36mMSfdT-64" value="&lt;font style=&quot;font-size: 10px;&quot;&gt;Cellars&lt;/font&gt;" style="rounded=0;whiteSpace=wrap;html=1;fillColor=#660066;" parent="1" vertex="1">
          <mxGeometry x="452" y="345" width="53" height="45" as="geometry" />
        </mxCell>
        <mxCell id="k5EalT-84JXe36mMSfdT-65" value="&lt;font style=&quot;font-size: 10px;&quot;&gt;Showroom&lt;/font&gt;" style="rounded=0;whiteSpace=wrap;html=1;fillColor=#660066;" parent="1" vertex="1">
          <mxGeometry x="345" y="345" width="53" height="45" as="geometry" />
        </mxCell>
        <mxCell id="k5EalT-84JXe36mMSfdT-66" value="&lt;font style=&quot;font-size: 10px;&quot;&gt;Arcane Chambers&lt;/font&gt;" style="rounded=0;whiteSpace=wrap;html=1;fillColor=#660066;" parent="1" vertex="1">
          <mxGeometry x="398.5" y="345" width="53" height="45" as="geometry" />
        </mxCell>
        <mxCell id="k5EalT-84JXe36mMSfdT-67" value="&lt;font style=&quot;font-size: 10px;&quot;&gt;Office&lt;/font&gt;" style="rounded=0;whiteSpace=wrap;html=1;fillColor=#660066;" parent="1" vertex="1">
          <mxGeometry x="452" y="390" width="53" height="45" as="geometry" />
        </mxCell>
        <mxCell id="k5EalT-84JXe36mMSfdT-68" value="&lt;font style=&quot;font-size: 10px;&quot;&gt;Rafters&lt;/font&gt;" style="rounded=0;whiteSpace=wrap;html=1;fillColor=#660066;" parent="1" vertex="1">
          <mxGeometry x="345" y="390" width="53" height="45" as="geometry" />
        </mxCell>
        <mxCell id="k5EalT-84JXe36mMSfdT-69" value="&lt;font style=&quot;font-size: 10px;&quot;&gt;Storage Tanks&lt;/font&gt;" style="rounded=0;whiteSpace=wrap;html=1;fillColor=#660066;" parent="1" vertex="1">
          <mxGeometry x="398.5" y="390" width="53" height="45" as="geometry" />
        </mxCell>
        <mxCell id="k5EalT-84JXe36mMSfdT-154" style="edgeStyle=orthogonalEdgeStyle;rounded=0;orthogonalLoop=1;jettySize=auto;html=1;entryX=0;entryY=0.5;entryDx=0;entryDy=0;startArrow=classic;startFill=1;" parent="1" source="k5EalT-84JXe36mMSfdT-70" target="k5EalT-84JXe36mMSfdT-85" edge="1">
          <mxGeometry relative="1" as="geometry" />
        </mxCell>
        <mxCell id="k5EalT-84JXe36mMSfdT-70" value="&lt;font style=&quot;font-size: 10px;&quot;&gt;Stamping Line&lt;/font&gt;" style="rounded=0;whiteSpace=wrap;html=1;fillColor=#660066;" parent="1" vertex="1">
          <mxGeometry x="452" y="435" width="53" height="45" as="geometry" />
        </mxCell>
        <mxCell id="k5EalT-84JXe36mMSfdT-164" style="edgeStyle=orthogonalEdgeStyle;rounded=0;orthogonalLoop=1;jettySize=auto;html=1;startArrow=classic;startFill=1;" parent="1" source="k5EalT-84JXe36mMSfdT-71" target="k5EalT-84JXe36mMSfdT-80" edge="1">
          <mxGeometry relative="1" as="geometry" />
        </mxCell>
        <mxCell id="k5EalT-84JXe36mMSfdT-71" value="&lt;font style=&quot;font-size: 10px;&quot;&gt;Loading Bay&lt;/font&gt;" style="rounded=0;whiteSpace=wrap;html=1;fillColor=#660066;" parent="1" vertex="1">
          <mxGeometry x="345" y="435" width="53" height="45" as="geometry" />
        </mxCell>
        <mxCell id="k5EalT-84JXe36mMSfdT-155" style="edgeStyle=orthogonalEdgeStyle;rounded=0;orthogonalLoop=1;jettySize=auto;html=1;entryX=1;entryY=0.5;entryDx=0;entryDy=0;startArrow=classic;startFill=1;" parent="1" source="k5EalT-84JXe36mMSfdT-72" target="k5EalT-84JXe36mMSfdT-94" edge="1">
          <mxGeometry relative="1" as="geometry">
            <Array as="points">
              <mxPoint x="425" y="520" />
              <mxPoint x="525" y="520" />
              <mxPoint x="525" y="648" />
            </Array>
          </mxGeometry>
        </mxCell>
        <mxCell id="k5EalT-84JXe36mMSfdT-72" value="&lt;font style=&quot;font-size: 10px;&quot;&gt;Pallets&lt;/font&gt;" style="rounded=0;whiteSpace=wrap;html=1;fillColor=#660066;" parent="1" vertex="1">
          <mxGeometry x="398.5" y="435" width="53" height="45" as="geometry" />
        </mxCell>
        <mxCell id="k5EalT-84JXe36mMSfdT-73" value="&lt;font color=&quot;#000000&quot;&gt;Cordon&lt;/font&gt;" style="rounded=0;whiteSpace=wrap;html=1;fillColor=#99CCFF;" parent="1" vertex="1">
          <mxGeometry x="40" y="320" width="160" height="25" as="geometry" />
        </mxCell>
        <mxCell id="k5EalT-84JXe36mMSfdT-74" value="&lt;font size=&quot;1&quot; color=&quot;#000000&quot;&gt;Mudhouse&lt;br&gt;&lt;/font&gt;" style="rounded=0;whiteSpace=wrap;html=1;fillColor=#99CCFF;" parent="1" vertex="1">
          <mxGeometry x="147" y="345" width="53" height="45" as="geometry" />
        </mxCell>
        <mxCell id="k5EalT-84JXe36mMSfdT-75" value="&lt;font style=&quot;font-size: 10px;&quot; color=&quot;#000000&quot;&gt;Rec. Camp&lt;/font&gt;" style="rounded=0;whiteSpace=wrap;html=1;fillColor=#99CCFF;" parent="1" vertex="1">
          <mxGeometry x="40" y="345" width="53" height="45" as="geometry" />
        </mxCell>
        <mxCell id="k5EalT-84JXe36mMSfdT-150" style="edgeStyle=orthogonalEdgeStyle;rounded=0;orthogonalLoop=1;jettySize=auto;html=1;entryX=0.5;entryY=1;entryDx=0;entryDy=0;startArrow=classic;startFill=1;" parent="1" source="k5EalT-84JXe36mMSfdT-76" target="k5EalT-84JXe36mMSfdT-13" edge="1">
          <mxGeometry relative="1" as="geometry" />
        </mxCell>
        <mxCell id="k5EalT-84JXe36mMSfdT-76" value="&lt;font color=&quot;#000000&quot; style=&quot;font-size: 10px;&quot;&gt;Killing Fields&lt;/font&gt;" style="rounded=0;whiteSpace=wrap;html=1;fillColor=#99CCFF;" parent="1" vertex="1">
          <mxGeometry x="93.5" y="345" width="53" height="45" as="geometry" />
        </mxCell>
        <mxCell id="k5EalT-84JXe36mMSfdT-77" value="&lt;font color=&quot;#000000&quot; style=&quot;font-size: 10px;&quot;&gt;Hunting Slots&lt;/font&gt;" style="rounded=0;whiteSpace=wrap;html=1;fillColor=#99CCFF;" parent="1" vertex="1">
          <mxGeometry x="147" y="390" width="53" height="45" as="geometry" />
        </mxCell>
        <mxCell id="k5EalT-84JXe36mMSfdT-144" style="edgeStyle=orthogonalEdgeStyle;rounded=0;orthogonalLoop=1;jettySize=auto;html=1;entryX=0;entryY=0.5;entryDx=0;entryDy=0;startArrow=classic;startFill=1;" parent="1" source="k5EalT-84JXe36mMSfdT-78" target="k5EalT-84JXe36mMSfdT-136" edge="1">
          <mxGeometry relative="1" as="geometry">
            <Array as="points">
              <mxPoint x="20" y="412" />
              <mxPoint x="20" y="260" />
            </Array>
          </mxGeometry>
        </mxCell>
        <mxCell id="k5EalT-84JXe36mMSfdT-78" value="&lt;font style=&quot;font-size: 10px;&quot; color=&quot;#000000&quot;&gt;Reserve&lt;/font&gt;" style="rounded=0;whiteSpace=wrap;html=1;fillColor=#99CCFF;" parent="1" vertex="1">
          <mxGeometry x="40" y="390" width="53" height="45" as="geometry" />
        </mxCell>
        <mxCell id="k5EalT-84JXe36mMSfdT-79" value="&lt;font color=&quot;#000000&quot; style=&quot;font-size: 10px;&quot;&gt;Depot&lt;/font&gt;" style="rounded=0;whiteSpace=wrap;html=1;fillColor=#99CCFF;" parent="1" vertex="1">
          <mxGeometry x="93.5" y="390" width="53" height="45" as="geometry" />
        </mxCell>
        <mxCell id="k5EalT-84JXe36mMSfdT-80" value="&lt;font color=&quot;#000000&quot; style=&quot;font-size: 10px;&quot;&gt;Forward Post&lt;/font&gt;" style="rounded=0;whiteSpace=wrap;html=1;fillColor=#99CCFF;" parent="1" vertex="1">
          <mxGeometry x="147" y="435" width="53" height="45" as="geometry" />
        </mxCell>
        <mxCell id="k5EalT-84JXe36mMSfdT-81" value="&lt;font style=&quot;font-size: 10px;&quot; color=&quot;#000000&quot;&gt;Barracks&lt;/font&gt;" style="rounded=0;whiteSpace=wrap;html=1;fillColor=#99CCFF;" parent="1" vertex="1">
          <mxGeometry x="40" y="435" width="53" height="45" as="geometry" />
        </mxCell>
        <mxCell id="k5EalT-84JXe36mMSfdT-82" value="&lt;font color=&quot;#000000&quot; size=&quot;1&quot;&gt;Training Camp&lt;/font&gt;" style="rounded=0;whiteSpace=wrap;html=1;fillColor=#99CCFF;" parent="1" vertex="1">
          <mxGeometry x="93.5" y="435" width="53" height="45" as="geometry" />
        </mxCell>
        <mxCell id="k5EalT-84JXe36mMSfdT-83" value="&lt;font color=&quot;#000000&quot;&gt;Base&lt;/font&gt;" style="rounded=0;whiteSpace=wrap;html=1;fillColor=#E6E6E6;" parent="1" vertex="1">
          <mxGeometry x="650" y="600" width="160" height="25" as="geometry" />
        </mxCell>
        <mxCell id="k5EalT-84JXe36mMSfdT-84" value="&lt;font color=&quot;#000000&quot; style=&quot;font-size: 10px;&quot;&gt;Mess Hall&lt;/font&gt;" style="rounded=0;whiteSpace=wrap;html=1;fillColor=#E6E6E6;" parent="1" vertex="1">
          <mxGeometry x="757" y="625" width="53" height="45" as="geometry" />
        </mxCell>
        <mxCell id="k5EalT-84JXe36mMSfdT-85" value="&lt;font color=&quot;#000000&quot; style=&quot;font-size: 10px;&quot;&gt;Importing Pallets&lt;/font&gt;" style="rounded=0;whiteSpace=wrap;html=1;fillColor=#E6E6E6;" parent="1" vertex="1">
          <mxGeometry x="650" y="625" width="53" height="45" as="geometry" />
        </mxCell>
        <mxCell id="k5EalT-84JXe36mMSfdT-86" value="&lt;font color=&quot;#000000&quot; style=&quot;font-size: 10px;&quot;&gt;Front Gate&lt;/font&gt;" style="rounded=0;whiteSpace=wrap;html=1;fillColor=#E6E6E6;" parent="1" vertex="1">
          <mxGeometry x="703.5" y="625" width="53" height="45" as="geometry" />
        </mxCell>
        <mxCell id="k5EalT-84JXe36mMSfdT-87" value="&lt;font color=&quot;#000000&quot; style=&quot;font-size: 10px;&quot;&gt;Armory&lt;/font&gt;" style="rounded=0;whiteSpace=wrap;html=1;fillColor=#E6E6E6;" parent="1" vertex="1">
          <mxGeometry x="757" y="670" width="53" height="45" as="geometry" />
        </mxCell>
        <mxCell id="k5EalT-84JXe36mMSfdT-88" value="&lt;font style=&quot;font-size: 10px;&quot; color=&quot;#000000&quot;&gt;Broken Gate&lt;/font&gt;" style="rounded=0;whiteSpace=wrap;html=1;fillColor=#E6E6E6;" parent="1" vertex="1">
          <mxGeometry x="650" y="670" width="53" height="45" as="geometry" />
        </mxCell>
        <mxCell id="k5EalT-84JXe36mMSfdT-89" value="&lt;font style=&quot;font-size: 10px;&quot; color=&quot;#000000&quot;&gt;Intel Center&lt;/font&gt;" style="rounded=0;whiteSpace=wrap;html=1;fillColor=#E6E6E6;" parent="1" vertex="1">
          <mxGeometry x="703.5" y="670" width="53" height="45" as="geometry" />
        </mxCell>
        <mxCell id="k5EalT-84JXe36mMSfdT-157" style="edgeStyle=orthogonalEdgeStyle;rounded=0;orthogonalLoop=1;jettySize=auto;html=1;entryX=1;entryY=0.5;entryDx=0;entryDy=0;startArrow=classic;startFill=1;" parent="1" source="k5EalT-84JXe36mMSfdT-90" target="k5EalT-84JXe36mMSfdT-124" edge="1">
          <mxGeometry relative="1" as="geometry">
            <Array as="points">
              <mxPoint x="840" y="737.5" />
              <mxPoint x="840" y="927" />
            </Array>
          </mxGeometry>
        </mxCell>
        <mxCell id="k5EalT-84JXe36mMSfdT-90" value="&lt;font color=&quot;#000000&quot; style=&quot;font-size: 10px;&quot;&gt;Hangars&lt;/font&gt;" style="rounded=0;whiteSpace=wrap;html=1;fillColor=#E6E6E6;" parent="1" vertex="1">
          <mxGeometry x="757" y="715" width="53" height="45" as="geometry" />
        </mxCell>
        <mxCell id="k5EalT-84JXe36mMSfdT-91" value="&lt;font color=&quot;#000000&quot; style=&quot;font-size: 10px;&quot;&gt;Infirmary&lt;/font&gt;" style="rounded=0;whiteSpace=wrap;html=1;fillColor=#E6E6E6;" parent="1" vertex="1">
          <mxGeometry x="650" y="715" width="53" height="45" as="geometry" />
        </mxCell>
        <mxCell id="k5EalT-84JXe36mMSfdT-167" style="edgeStyle=orthogonalEdgeStyle;rounded=0;orthogonalLoop=1;jettySize=auto;html=1;entryX=1;entryY=0.5;entryDx=0;entryDy=0;startArrow=classic;startFill=1;" parent="1" source="k5EalT-84JXe36mMSfdT-92" target="k5EalT-84JXe36mMSfdT-114" edge="1">
          <mxGeometry relative="1" as="geometry">
            <Array as="points">
              <mxPoint x="730" y="790" />
              <mxPoint x="540" y="790" />
              <mxPoint x="540" y="928" />
            </Array>
          </mxGeometry>
        </mxCell>
        <mxCell id="k5EalT-84JXe36mMSfdT-92" value="&lt;font color=&quot;#000000&quot; style=&quot;font-size: 10px;&quot;&gt;Old Barracks&lt;/font&gt;" style="rounded=0;whiteSpace=wrap;html=1;fillColor=#E6E6E6;" parent="1" vertex="1">
          <mxGeometry x="703.5" y="715" width="53" height="45" as="geometry" />
        </mxCell>
        <mxCell id="k5EalT-84JXe36mMSfdT-93" value="&lt;font color=&quot;#000000&quot;&gt;City&lt;/font&gt;" style="rounded=0;whiteSpace=wrap;html=1;fillColor=#FFFF66;" parent="1" vertex="1">
          <mxGeometry x="345" y="600" width="160" height="25" as="geometry" />
        </mxCell>
        <mxCell id="k5EalT-84JXe36mMSfdT-94" value="&lt;font color=&quot;#000000&quot; style=&quot;font-size: 8px;&quot;&gt;Construction Site&lt;/font&gt;" style="rounded=0;whiteSpace=wrap;html=1;fillColor=#FFFF66;" parent="1" vertex="1">
          <mxGeometry x="452" y="625" width="53" height="45" as="geometry" />
        </mxCell>
        <mxCell id="k5EalT-84JXe36mMSfdT-95" value="&lt;font color=&quot;#000000&quot; style=&quot;font-size: 10px;&quot;&gt;Office, North&lt;/font&gt;" style="rounded=0;whiteSpace=wrap;html=1;fillColor=#FFFF66;" parent="1" vertex="1">
          <mxGeometry x="345" y="625" width="53" height="45" as="geometry" />
        </mxCell>
        <mxCell id="k5EalT-84JXe36mMSfdT-96" value="&lt;font color=&quot;#000000&quot; style=&quot;font-size: 10px;&quot;&gt;Arched Road&lt;/font&gt;" style="rounded=0;whiteSpace=wrap;html=1;fillColor=#FFFF66;" parent="1" vertex="1">
          <mxGeometry x="398.5" y="625" width="53" height="45" as="geometry" />
        </mxCell>
        <mxCell id="k5EalT-84JXe36mMSfdT-97" value="&lt;font color=&quot;#000000&quot; style=&quot;font-size: 10px;&quot;&gt;Mall&lt;/font&gt;" style="rounded=0;whiteSpace=wrap;html=1;fillColor=#FFFF66;" parent="1" vertex="1">
          <mxGeometry x="452" y="670" width="53" height="45" as="geometry" />
        </mxCell>
        <mxCell id="k5EalT-84JXe36mMSfdT-98" value="&lt;font style=&quot;font-size: 10px;&quot; color=&quot;#000000&quot;&gt;Office, South&lt;/font&gt;" style="rounded=0;whiteSpace=wrap;html=1;fillColor=#FFFF66;" parent="1" vertex="1">
          <mxGeometry x="345" y="670" width="53" height="45" as="geometry" />
        </mxCell>
        <mxCell id="k5EalT-84JXe36mMSfdT-99" value="&lt;font color=&quot;#000000&quot; style=&quot;font-size: 10px;&quot;&gt;Fountain Park&lt;/font&gt;" style="rounded=0;whiteSpace=wrap;html=1;fillColor=#FFFF66;" parent="1" vertex="1">
          <mxGeometry x="398.5" y="670" width="53" height="45" as="geometry" />
        </mxCell>
        <mxCell id="k5EalT-84JXe36mMSfdT-156" style="edgeStyle=orthogonalEdgeStyle;rounded=0;orthogonalLoop=1;jettySize=auto;html=1;startArrow=classic;startFill=1;" parent="1" source="k5EalT-84JXe36mMSfdT-100" target="k5EalT-84JXe36mMSfdT-91" edge="1">
          <mxGeometry relative="1" as="geometry" />
        </mxCell>
        <mxCell id="k5EalT-84JXe36mMSfdT-100" value="&lt;font color=&quot;#000000&quot; style=&quot;font-size: 10px;&quot;&gt;Hospital&lt;/font&gt;" style="rounded=0;whiteSpace=wrap;html=1;fillColor=#FFFF66;" parent="1" vertex="1">
          <mxGeometry x="452" y="715" width="53" height="45" as="geometry" />
        </mxCell>
        <mxCell id="k5EalT-84JXe36mMSfdT-160" style="edgeStyle=orthogonalEdgeStyle;rounded=0;orthogonalLoop=1;jettySize=auto;html=1;entryX=1;entryY=0.5;entryDx=0;entryDy=0;startArrow=classic;startFill=1;" parent="1" source="k5EalT-84JXe36mMSfdT-101" target="k5EalT-84JXe36mMSfdT-110" edge="1">
          <mxGeometry relative="1" as="geometry" />
        </mxCell>
        <mxCell id="k5EalT-84JXe36mMSfdT-101" value="&lt;font color=&quot;#000000&quot; style=&quot;font-size: 8px;&quot;&gt;Apartments, West&lt;/font&gt;" style="rounded=0;whiteSpace=wrap;html=1;fillColor=#FFFF66;" parent="1" vertex="1">
          <mxGeometry x="345" y="715" width="53" height="45" as="geometry" />
        </mxCell>
        <mxCell id="k5EalT-84JXe36mMSfdT-159" style="edgeStyle=orthogonalEdgeStyle;rounded=0;orthogonalLoop=1;jettySize=auto;html=1;entryX=0;entryY=0.5;entryDx=0;entryDy=0;" parent="1" source="k5EalT-84JXe36mMSfdT-102" target="k5EalT-84JXe36mMSfdT-115" edge="1">
          <mxGeometry relative="1" as="geometry">
            <Array as="points">
              <mxPoint x="425" y="800" />
              <mxPoint x="325" y="800" />
              <mxPoint x="325" y="928" />
            </Array>
          </mxGeometry>
        </mxCell>
        <mxCell id="k5EalT-84JXe36mMSfdT-102" value="&lt;font style=&quot;font-size: 8px;&quot; color=&quot;#000000&quot;&gt;Apartments, East&lt;/font&gt;" style="rounded=0;whiteSpace=wrap;html=1;fillColor=#FFFF66;" parent="1" vertex="1">
          <mxGeometry x="398.5" y="715" width="53" height="45" as="geometry" />
        </mxCell>
        <mxCell id="k5EalT-84JXe36mMSfdT-103" value="Village" style="rounded=0;whiteSpace=wrap;html=1;fillColor=#FF8000;" parent="1" vertex="1">
          <mxGeometry x="40" y="600" width="160" height="25" as="geometry" />
        </mxCell>
        <mxCell id="k5EalT-84JXe36mMSfdT-104" value="Villas" style="rounded=0;whiteSpace=wrap;html=1;fillColor=#FF8000;fontSize=10;" parent="1" vertex="1">
          <mxGeometry x="147" y="625" width="53" height="45" as="geometry" />
        </mxCell>
        <mxCell id="k5EalT-84JXe36mMSfdT-163" style="edgeStyle=orthogonalEdgeStyle;rounded=0;orthogonalLoop=1;jettySize=auto;html=1;entryX=0.5;entryY=1;entryDx=0;entryDy=0;exitX=0;exitY=0.5;exitDx=0;exitDy=0;startArrow=classic;startFill=1;" parent="1" source="k5EalT-84JXe36mMSfdT-105" target="k5EalT-84JXe36mMSfdT-81" edge="1">
          <mxGeometry relative="1" as="geometry">
            <Array as="points">
              <mxPoint x="20" y="648" />
              <mxPoint x="20" y="520" />
              <mxPoint x="67" y="520" />
            </Array>
          </mxGeometry>
        </mxCell>
        <mxCell id="k5EalT-84JXe36mMSfdT-105" value="Hovels" style="rounded=0;whiteSpace=wrap;html=1;fillColor=#FF8000;fontSize=10;" parent="1" vertex="1">
          <mxGeometry x="40" y="625" width="53" height="45" as="geometry" />
        </mxCell>
        <mxCell id="k5EalT-84JXe36mMSfdT-106" value="Homes" style="rounded=0;whiteSpace=wrap;html=1;fillColor=#FF8000;fontSize=10;" parent="1" vertex="1">
          <mxGeometry x="93.5" y="625" width="53" height="45" as="geometry" />
        </mxCell>
        <mxCell id="k5EalT-84JXe36mMSfdT-161" style="edgeStyle=orthogonalEdgeStyle;rounded=0;orthogonalLoop=1;jettySize=auto;html=1;entryX=0;entryY=0.5;entryDx=0;entryDy=0;startArrow=classic;startFill=1;" parent="1" source="k5EalT-84JXe36mMSfdT-107" target="k5EalT-84JXe36mMSfdT-95" edge="1">
          <mxGeometry relative="1" as="geometry" />
        </mxCell>
        <mxCell id="k5EalT-84JXe36mMSfdT-107" value="Outskirts, North" style="rounded=0;whiteSpace=wrap;html=1;fillColor=#FF8000;fontSize=10;" parent="1" vertex="1">
          <mxGeometry x="147" y="670" width="53" height="45" as="geometry" />
        </mxCell>
        <mxCell id="k5EalT-84JXe36mMSfdT-145" style="edgeStyle=orthogonalEdgeStyle;rounded=0;orthogonalLoop=1;jettySize=auto;html=1;entryX=0;entryY=0.5;entryDx=0;entryDy=0;startArrow=classic;startFill=1;" parent="1" source="k5EalT-84JXe36mMSfdT-108" target="k5EalT-84JXe36mMSfdT-15" edge="1">
          <mxGeometry relative="1" as="geometry">
            <Array as="points">
              <mxPoint x="20" y="693" />
              <mxPoint x="20" y="960" />
            </Array>
          </mxGeometry>
        </mxCell>
        <mxCell id="k5EalT-84JXe36mMSfdT-108" value="Maize Fields" style="rounded=0;whiteSpace=wrap;html=1;fillColor=#FF8000;fontSize=10;" parent="1" vertex="1">
          <mxGeometry x="40" y="670" width="53" height="45" as="geometry" />
        </mxCell>
        <mxCell id="k5EalT-84JXe36mMSfdT-109" value="Market" style="rounded=0;whiteSpace=wrap;html=1;fillColor=#FF8000;fontSize=10;" parent="1" vertex="1">
          <mxGeometry x="93.5" y="670" width="53" height="45" as="geometry" />
        </mxCell>
        <mxCell id="k5EalT-84JXe36mMSfdT-110" value="Outskirts, South" style="rounded=0;whiteSpace=wrap;html=1;fillColor=#FF8000;fontSize=10;" parent="1" vertex="1">
          <mxGeometry x="147" y="715" width="53" height="45" as="geometry" />
        </mxCell>
        <mxCell id="k5EalT-84JXe36mMSfdT-111" value="Windmill" style="rounded=0;whiteSpace=wrap;html=1;fillColor=#FF8000;fontSize=10;" parent="1" vertex="1">
          <mxGeometry x="40" y="715" width="53" height="45" as="geometry" />
        </mxCell>
        <mxCell id="k5EalT-84JXe36mMSfdT-146" style="edgeStyle=orthogonalEdgeStyle;rounded=0;orthogonalLoop=1;jettySize=auto;html=1;entryX=0;entryY=0.5;entryDx=0;entryDy=0;startArrow=classic;startFill=1;" parent="1" source="k5EalT-84JXe36mMSfdT-112" target="k5EalT-84JXe36mMSfdT-15" edge="1">
          <mxGeometry relative="1" as="geometry" />
        </mxCell>
        <mxCell id="k5EalT-84JXe36mMSfdT-112" value="Empty Fences" style="rounded=0;whiteSpace=wrap;html=1;fillColor=#FF8000;fontSize=10;" parent="1" vertex="1">
          <mxGeometry x="93.5" y="715" width="53" height="45" as="geometry" />
        </mxCell>
        <mxCell id="k5EalT-84JXe36mMSfdT-113" value="Temple" style="rounded=0;whiteSpace=wrap;html=1;fillColor=#999999;" parent="1" vertex="1">
          <mxGeometry x="345" y="880" width="160" height="25" as="geometry" />
        </mxCell>
        <mxCell id="k5EalT-84JXe36mMSfdT-114" value="&lt;font style=&quot;font-size: 10px;&quot;&gt;Broken Tower&lt;/font&gt;" style="rounded=0;whiteSpace=wrap;html=1;fillColor=#999999;" parent="1" vertex="1">
          <mxGeometry x="452" y="905" width="53" height="45" as="geometry" />
        </mxCell>
        <mxCell id="k5EalT-84JXe36mMSfdT-115" value="&lt;font style=&quot;font-size: 10px;&quot;&gt;Open Cloister&lt;br&gt;&lt;/font&gt;" style="rounded=0;whiteSpace=wrap;html=1;fillColor=#999999;" parent="1" vertex="1">
          <mxGeometry x="345" y="905" width="53" height="45" as="geometry" />
        </mxCell>
        <mxCell id="k5EalT-84JXe36mMSfdT-116" value="&lt;font style=&quot;font-size: 10px;&quot;&gt;North Gate&lt;/font&gt;" style="rounded=0;whiteSpace=wrap;html=1;fillColor=#999999;" parent="1" vertex="1">
          <mxGeometry x="398.5" y="905" width="53" height="45" as="geometry" />
        </mxCell>
        <mxCell id="k5EalT-84JXe36mMSfdT-117" value="&lt;font style=&quot;font-size: 10px;&quot;&gt;Temple Garden&lt;/font&gt;" style="rounded=0;whiteSpace=wrap;html=1;fillColor=#999999;" parent="1" vertex="1">
          <mxGeometry x="452" y="950" width="53" height="45" as="geometry" />
        </mxCell>
        <mxCell id="k5EalT-84JXe36mMSfdT-118" value="&lt;font style=&quot;font-size: 10px;&quot;&gt;Graveyard&lt;/font&gt;" style="rounded=0;whiteSpace=wrap;html=1;fillColor=#999999;" parent="1" vertex="1">
          <mxGeometry x="345" y="950" width="53" height="45" as="geometry" />
        </mxCell>
        <mxCell id="k5EalT-84JXe36mMSfdT-119" value="&lt;font style=&quot;font-size: 10px;&quot;&gt;Temple Proper&lt;/font&gt;" style="rounded=0;whiteSpace=wrap;html=1;fillColor=#999999;" parent="1" vertex="1">
          <mxGeometry x="398.5" y="950" width="53" height="45" as="geometry" />
        </mxCell>
        <mxCell id="k5EalT-84JXe36mMSfdT-120" value="&lt;font style=&quot;font-size: 10px;&quot;&gt;Stable&lt;br&gt;&amp;nbsp;Tower&lt;/font&gt;" style="rounded=0;whiteSpace=wrap;html=1;fillColor=#999999;" parent="1" vertex="1">
          <mxGeometry x="452" y="995" width="53" height="45" as="geometry" />
        </mxCell>
        <mxCell id="k5EalT-84JXe36mMSfdT-121" value="&lt;font style=&quot;font-size: 10px;&quot;&gt;Dormitories&lt;/font&gt;" style="rounded=0;whiteSpace=wrap;html=1;fillColor=#999999;" parent="1" vertex="1">
          <mxGeometry x="345" y="995" width="53" height="45" as="geometry" />
        </mxCell>
        <mxCell id="k5EalT-84JXe36mMSfdT-122" value="&lt;font style=&quot;font-size: 10px;&quot;&gt;South Gate&lt;/font&gt;" style="rounded=0;whiteSpace=wrap;html=1;fillColor=#999999;" parent="1" vertex="1">
          <mxGeometry x="398.5" y="995" width="53" height="45" as="geometry" />
        </mxCell>
        <mxCell id="k5EalT-84JXe36mMSfdT-123" value="Shipyard" style="rounded=0;whiteSpace=wrap;html=1;fillColor=#663300;" parent="1" vertex="1">
          <mxGeometry x="650" y="880" width="160" height="25" as="geometry" />
        </mxCell>
        <mxCell id="k5EalT-84JXe36mMSfdT-124" value="&lt;font style=&quot;font-size: 10px;&quot;&gt;Cranes&lt;/font&gt;" style="rounded=0;whiteSpace=wrap;html=1;fillColor=#663300;" parent="1" vertex="1">
          <mxGeometry x="757" y="905" width="53" height="45" as="geometry" />
        </mxCell>
        <mxCell id="k5EalT-84JXe36mMSfdT-168" style="edgeStyle=orthogonalEdgeStyle;rounded=0;orthogonalLoop=1;jettySize=auto;html=1;entryX=1;entryY=0.5;entryDx=0;entryDy=0;startArrow=classic;startFill=1;" parent="1" source="k5EalT-84JXe36mMSfdT-125" target="k5EalT-84JXe36mMSfdT-120" edge="1">
          <mxGeometry relative="1" as="geometry" />
        </mxCell>
        <mxCell id="k5EalT-84JXe36mMSfdT-125" value="&lt;font style=&quot;font-size: 10px;&quot;&gt;Thicket&lt;/font&gt;" style="rounded=0;whiteSpace=wrap;html=1;fillColor=#663300;" parent="1" vertex="1">
          <mxGeometry x="650" y="905" width="53" height="45" as="geometry" />
        </mxCell>
        <mxCell id="k5EalT-84JXe36mMSfdT-143" style="edgeStyle=orthogonalEdgeStyle;rounded=0;orthogonalLoop=1;jettySize=auto;html=1;entryX=1;entryY=0.5;entryDx=0;entryDy=0;startArrow=classic;startFill=1;" parent="1" source="k5EalT-84JXe36mMSfdT-127" target="k5EalT-84JXe36mMSfdT-137" edge="1">
          <mxGeometry relative="1" as="geometry">
            <Array as="points">
              <mxPoint x="830" y="972" />
              <mxPoint x="830" y="820" />
            </Array>
          </mxGeometry>
        </mxCell>
        <mxCell id="k5EalT-84JXe36mMSfdT-127" value="&lt;font style=&quot;font-size: 10px;&quot;&gt;Ship&lt;/font&gt;" style="rounded=0;whiteSpace=wrap;html=1;fillColor=#663300;" parent="1" vertex="1">
          <mxGeometry x="757" y="950" width="53" height="45" as="geometry" />
        </mxCell>
        <mxCell id="k5EalT-84JXe36mMSfdT-128" value="&lt;font style=&quot;font-size: 10px;&quot;&gt;Deep Scar&lt;/font&gt;" style="rounded=0;whiteSpace=wrap;html=1;fillColor=#663300;" parent="1" vertex="1">
          <mxGeometry x="650" y="950" width="53" height="45" as="geometry" />
        </mxCell>
        <mxCell id="k5EalT-84JXe36mMSfdT-129" value="&lt;font style=&quot;font-size: 10px;&quot;&gt;Overwatch Tower&lt;/font&gt;" style="rounded=0;whiteSpace=wrap;html=1;fillColor=#663300;" parent="1" vertex="1">
          <mxGeometry x="703.5" y="950" width="53" height="45" as="geometry" />
        </mxCell>
        <mxCell id="k5EalT-84JXe36mMSfdT-130" value="&lt;font color=&quot;#ffffff&quot; style=&quot;font-size: 10px;&quot;&gt;Wall Games&lt;/font&gt;" style="rounded=0;whiteSpace=wrap;html=1;fillColor=#663300;" parent="1" vertex="1">
          <mxGeometry x="757" y="995" width="53" height="45" as="geometry" />
        </mxCell>
        <mxCell id="k5EalT-84JXe36mMSfdT-131" value="&lt;font style=&quot;font-size: 10px;&quot;&gt;Keep&lt;/font&gt;" style="rounded=0;whiteSpace=wrap;html=1;fillColor=#663300;" parent="1" vertex="1">
          <mxGeometry x="650" y="995" width="53" height="45" as="geometry" />
        </mxCell>
        <mxCell id="k5EalT-84JXe36mMSfdT-132" value="&lt;font style=&quot;font-size: 10px;&quot;&gt;Dugout&lt;/font&gt;" style="rounded=0;whiteSpace=wrap;html=1;fillColor=#663300;" parent="1" vertex="1">
          <mxGeometry x="703.5" y="995" width="53" height="45" as="geometry" />
        </mxCell>
        <mxCell id="k5EalT-84JXe36mMSfdT-148" style="edgeStyle=orthogonalEdgeStyle;rounded=0;orthogonalLoop=1;jettySize=auto;html=1;entryX=0;entryY=0.5;entryDx=0;entryDy=0;exitX=0.5;exitY=0;exitDx=0;exitDy=0;startArrow=classic;startFill=1;" parent="1" source="k5EalT-84JXe36mMSfdT-134" target="k5EalT-84JXe36mMSfdT-34" edge="1">
          <mxGeometry relative="1" as="geometry">
            <Array as="points">
              <mxPoint x="270" y="20" />
              <mxPoint x="325" y="20" />
              <mxPoint x="325" y="88" />
            </Array>
          </mxGeometry>
        </mxCell>
        <mxCell id="k5EalT-84JXe36mMSfdT-134" value="North&lt;br&gt;Entrance" style="rhombus;whiteSpace=wrap;html=1;" parent="1" vertex="1">
          <mxGeometry x="230" y="40" width="80" height="80" as="geometry" />
        </mxCell>
        <mxCell id="k5EalT-84JXe36mMSfdT-139" style="edgeStyle=orthogonalEdgeStyle;rounded=0;orthogonalLoop=1;jettySize=auto;html=1;entryX=1;entryY=0.5;entryDx=0;entryDy=0;startArrow=classic;startFill=1;" parent="1" source="k5EalT-84JXe36mMSfdT-135" target="k5EalT-84JXe36mMSfdT-54" edge="1">
          <mxGeometry relative="1" as="geometry">
            <Array as="points">
              <mxPoint x="830" y="260" />
              <mxPoint x="830" y="88" />
            </Array>
          </mxGeometry>
        </mxCell>
        <mxCell id="k5EalT-84JXe36mMSfdT-135" value="North&lt;br&gt;Breach" style="rhombus;whiteSpace=wrap;html=1;" parent="1" vertex="1">
          <mxGeometry x="730" y="220" width="80" height="80" as="geometry" />
        </mxCell>
        <mxCell id="k5EalT-84JXe36mMSfdT-136" value="West&lt;br&gt;Entrance" style="rhombus;whiteSpace=wrap;html=1;" parent="1" vertex="1">
          <mxGeometry x="40" y="220" width="80" height="80" as="geometry" />
        </mxCell>
        <mxCell id="k5EalT-84JXe36mMSfdT-137" value="&lt;font style=&quot;font-size: 12px;&quot;&gt;South Entrance&lt;/font&gt;" style="rhombus;whiteSpace=wrap;html=1;" parent="1" vertex="1">
          <mxGeometry x="730" y="780" width="80" height="80" as="geometry" />
        </mxCell>
        <mxCell id="k5EalT-84JXe36mMSfdT-142" style="edgeStyle=orthogonalEdgeStyle;rounded=0;orthogonalLoop=1;jettySize=auto;html=1;startArrow=classic;startFill=1;" parent="1" source="k5EalT-84JXe36mMSfdT-14" target="k5EalT-84JXe36mMSfdT-86" edge="1">
          <mxGeometry relative="1" as="geometry" />
        </mxCell>
        <mxCell id="k5EalT-84JXe36mMSfdT-162" style="edgeStyle=orthogonalEdgeStyle;rounded=0;orthogonalLoop=1;jettySize=auto;html=1;entryX=0.5;entryY=1;entryDx=0;entryDy=0;startArrow=classic;startFill=1;" parent="1" source="k5EalT-84JXe36mMSfdT-80" target="k5EalT-84JXe36mMSfdT-103" edge="1">
          <mxGeometry relative="1" as="geometry">
            <Array as="points">
              <mxPoint x="174" y="520" />
              <mxPoint x="120" y="520" />
            </Array>
          </mxGeometry>
        </mxCell>
        <mxCell id="k5EalT-84JXe36mMSfdT-165" value="&lt;font style=&quot;font-size: 10px;&quot;&gt;Materials Yard&lt;/font&gt;" style="rounded=0;whiteSpace=wrap;html=1;fillColor=#663300;" parent="1" vertex="1">
          <mxGeometry x="703" y="905" width="54" height="45" as="geometry" />
        </mxCell>
      </root>
    </mxGraphModel>
  </diagram>
</mxfile>
